# xmcd
#
# Track frame offsets:
#	150
#	36211
#	52467
#	79146
#	98456
#	121217
#	142625
#	158829
#	183127
#
# Disc length: 2698 seconds
#
# Revision: 4293590857
# Processed by: cddbd v1.5.2PL0 Copyright (c) Steve Scherf et al.
# Submitted via: EZCDAudioConverter 8.0.2.1
#
DISCID=690a8809
DTITLE=Ngọc Khuê - Bên Bờ Ao Nhà Mình
DYEAR=2004
DGENRE=
TTITLE0=Bên Bờ Ao Nhà Mình
TTITLE1=Người ở, người về
TTITLE2=Gió mùa về
TTITLE3=Cặp ba lá
TTITLE4=Ngồi tựa mạn thuyền
TTITLE5=Đá trông chồng
TTITLE6=Để em mơ
TTITLE7=Chuồn chuồn ớt
TTITLE8=Cặp ba lá
EXTD=
EXTT0=
EXTT1=
EXTT2=
EXTT3=
EXTT4=
EXTT5=
EXTT6=
EXTT7=
EXTT8=
PLAYORDER=
